<?xml version="1.0" standalone="no"?>
<!DOCTYPE svg PUBLIC "-//W3C//DTD SVG 20010904//EN"
 "http://www.w3.org/TR/2001/REC-SVG-20010904/DTD/svg10.dtd">
<svg version="1.0" xmlns="http://www.w3.org/2000/svg"
 width="502.000000pt" height="502.000000pt" viewBox="0 0 502.000000 502.000000"
 preserveAspectRatio="xMidYMid meet">

<g transform="translate(0.000000,502.000000) scale(0.100000,-0.100000)"
fill="#000000" stroke="none">
<path d="M0 2510 l0 -2511 743 3 c408 2 751 7 762 11 16 7 17 7 5 -2 -11 -7
493 -11 1748 -11 l1762 0 0 2510 0 2510 -2510 0 -2510 0 0 -2510z m2064 2154
c9 -4 21 -14 26 -24 9 -16 5 -18 -40 -17 -52 2 -66 17 -32 36 20 12 25 13 46
5z m4 -72 c3 -19 -1 -22 -30 -21 l-33 1 28 11 c15 6 27 14 27 19 0 4 -12 3
-26 -2 -31 -12 -34 -12 -34 -1 0 10 36 20 55 16 6 -1 11 -11 13 -23z m-1185
-897 c-3 -9 -8 -14 -10 -11 -3 3 -2 9 2 15 9 16 15 13 8 -4z m371 -29 c50 -3
62 -8 82 -33 28 -34 124 -218 124 -238 0 -7 -12 -15 -27 -17 -24 -3 -21 -6 32
-33 68 -34 155 -97 204 -149 l35 -36 -22 -45 c-25 -51 -27 -59 -12 -50 6 4 7
-1 3 -11 -4 -10 -8 -13 -10 -7 -5 14 -33 6 -33 -9 0 -19 -102 -128 -120 -128
-9 0 -29 -9 -43 -20 -14 -12 -41 -26 -59 -32 -18 -6 -42 -22 -53 -35 -42 -51
-119 -47 -197 8 -30 22 -31 22 -44 4 -8 -10 -14 -24 -14 -31 0 -7 -6 -17 -13
-21 -13 -8 -51 -120 -62 -183 -7 -40 -7 -97 1 -122 6 -21 -13 -23 -36 -5 -37
29 -54 72 -58 149 -4 73 -3 81 23 121 65 97 181 241 347 430 33 37 58 70 56
72 -2 3 -53 12 -112 21 -103 15 -189 15 -248 -1 l-28 -7 0 83 c1 150 31 245
95 296 39 32 68 42 105 37 14 -2 51 -5 84 -8z m180 -47 c26 -23 78 -82 115
-133 84 -111 111 -141 179 -200 29 -25 48 -46 43 -46 -5 0 -13 5 -16 10 -4 6
-11 7 -17 4 -7 -4 -8 -2 -4 4 3 6 -3 16 -15 22 -12 7 -35 27 -51 46 -17 19
-35 31 -41 27 -6 -3 -7 -1 -3 5 3 6 -2 15 -11 21 -10 6 -15 11 -10 11 9 0
-106 155 -137 185 -12 11 -38 35 -59 53 -21 17 -34 32 -29 32 5 0 30 -19 56
-41z m2531 -6 c-27 -14 -53 -31 -57 -37 -4 -6 -8 -8 -8 -3 0 4 -14 0 -30 -8
-18 -9 -28 -21 -24 -27 4 -7 3 -8 -5 -4 -6 4 -27 -2 -46 -13 -19 -11 -35 -17
-35 -13 0 5 15 16 33 25 17 9 70 37 117 62 47 24 90 44 95 44 6 0 -12 -12 -40
-26z m-1245 -25 c23 -21 36 -16 42 17 9 49 13 -10 8 -120 -4 -67 -7 -96 -9
-65 -3 74 -19 112 -21 50 l-1 -45 -33 75 c-48 109 -51 119 -27 113 10 -3 29
-14 41 -25z m-1745 -51 c-9 -14 -15 -34 -14 -44 1 -10 -1 -25 -4 -33 -4 -8 -8
-49 -10 -90 -2 -41 -3 -28 -2 30 1 83 5 112 20 138 10 17 21 30 23 28 2 -3 -4
-16 -13 -29z m1822 -29 c-3 -8 -6 -5 -6 6 -1 11 2 17 5 13 3 -3 4 -12 1 -19z
m-1062 -144 c28 -26 37 -38 20 -26 -16 11 -48 40 -70 63 -45 49 -25 34 50 -37z
m1665 11 c0 -2 -24 -16 -52 -31 -29 -14 -48 -21 -43 -15 6 6 28 20 50 30 45
23 45 23 45 16z m-1736 -74 c-2 -3 -12 3 -22 13 -16 17 -16 18 5 5 12 -7 20
-15 17 -18z m2481 -32 c4 -6 8 -72 10 -147 2 -146 27 -405 46 -487 6 -27 12
-67 12 -87 1 -21 4 -33 7 -28 7 11 32 -224 28 -250 -3 -14 9 -118 37 -340 14
-108 13 -144 -2 -69 -8 42 -33 67 -33 32 0 -15 2 -16 10 -3 9 13 10 13 9 0 -1
-8 -5 -26 -9 -40 l-8 -25 -1 27 c-1 34 -20 47 -23 16 0 -13 -4 -3 -7 22 -3 25
-10 44 -16 42 -5 -2 -13 7 -17 20 -20 74 5 -141 36 -307 6 -29 5 -28 -9 5 -8
19 -13 25 -11 13 3 -15 -1 -23 -9 -23 -7 0 -15 -3 -18 -7 -2 -5 -2 -2 0 6 2 7
-1 19 -6 25 -5 6 -16 47 -25 90 -19 92 -31 114 -22 41 l6 -50 -16 60 c-9 33
-21 63 -26 66 -12 8 -28 68 -28 106 0 17 -4 34 -9 38 -6 3 -8 -8 -5 -27 2 -18
8 -67 13 -108 5 -41 10 -79 11 -85 1 -5 1 -19 0 -30 -1 -11 -12 25 -26 80 -55
231 -119 632 -139 875 -9 102 -19 208 -23 235 l-7 50 -49 -148 c-27 -82 -50
-163 -51 -180 -2 -18 -4 -41 -5 -52 l-1 -20 -9 20 c-7 16 -9 11 -8 -20 0 -45
-18 -123 -33 -142 -6 -7 -7 -18 -3 -24 4 -7 3 -9 -4 -5 -6 4 -16 -19 -26 -61
-19 -85 -74 -254 -75 -231 -1 9 -4 25 -7 35 -5 15 -4 16 6 3 10 -13 11 -12 6
3 -3 10 -6 24 -6 30 -1 34 -21 -30 -23 -72 -1 -27 -4 -47 -7 -44 -8 8 -6 97 2
103 3 3 9 19 13 35 5 23 4 26 -4 15 -9 -13 -11 -12 -11 5 0 17 -2 18 -11 5 -8
-11 -9 -3 -5 30 5 34 3 41 -4 28 -6 -10 -12 -38 -13 -62 -1 -24 -6 -41 -11
-38 -5 3 -6 -9 -3 -27 4 -20 3 -30 -3 -26 -6 3 -11 1 -11 -4 -2 -14 -3 -20
-13 -55 -6 -24 -9 -27 -17 -15 -6 9 -8 -1 -4 -31 3 -34 2 -39 -4 -20 l-9 25
-2 -25 c-1 -25 -2 -25 -12 -4 -7 15 -7 49 -1 103 5 45 5 81 1 81 -4 0 -8 -11
-8 -24 0 -14 -4 -27 -9 -30 -5 -3 -4 15 0 42 6 31 6 48 -1 50 -6 2 -8 17 -4
37 3 20 1 35 -5 40 -6 3 -10 9 -7 13 2 4 7 105 11 226 5 172 4 217 -6 211 -43
-27 -119 15 -119 67 0 28 -1 29 -22 14 -12 -9 -30 -16 -39 -16 -11 0 -22 -18
-34 -55 -17 -57 -31 -76 -19 -27 16 61 78 201 129 286 52 90 124 188 112 154
-4 -10 -3 -18 2 -18 8 0 20 -39 70 -225 21 -79 14 -84 65 57 l28 78 66 35
c108 58 210 97 322 121 120 26 146 28 155 13z m-2038 -105 c-3 -3 -12 -4 -19
-1 -8 3 -5 6 6 6 11 1 17 -2 13 -5z m-392 -44 c-9 -16 -18 -30 -21 -30 -2 0 2
14 11 30 9 17 18 30 21 30 2 0 -2 -13 -11 -30z m468 23 c-7 -2 -19 -2 -25 0
-7 3 -2 5 12 5 14 0 19 -2 13 -5z m562 -3 c-3 -5 -18 -9 -33 -9 l-27 1 30 8
c17 4 31 8 33 9 2 0 0 -3 -3 -9z m-512 -7 c-7 -2 -19 -2 -25 0 -7 3 -2 5 12 5
14 0 19 -2 13 -5z m435 -10 c-10 -2 -26 -2 -35 0 -10 3 -2 5 17 5 19 0 27 -2
18 -5z m-101 -10 c-20 -2 -52 -2 -70 0 -17 2 0 4 38 4 39 0 53 -2 32 -4z
m-432 -27 c38 -12 39 -13 13 -18 -15 -3 -25 -1 -22 3 3 5 -4 9 -14 9 -11 0
-35 7 -53 15 l-34 16 35 -7 c19 -4 53 -12 75 -18z m-84 -121 c16 -27 29 -61
29 -75 0 -50 -23 -105 -57 -137 -19 -18 -31 -37 -28 -43 3 -5 -1 -10 -9 -10
-14 0 -16 24 -16 188 l1 187 25 -30 c14 -16 38 -52 55 -80z m183 97 c3 -5 -8
-6 -25 -4 -16 2 -29 6 -29 8 0 8 49 4 54 -4z m-153 -19 c13 -16 12 -17 -3 -4
-10 7 -18 15 -18 17 0 8 8 3 21 -13z m599 6 c13 -10 13 -10 0 -6 -9 3 -57 2
-109 -2 -51 -4 -95 -3 -97 1 -3 4 30 9 73 11 43 1 87 4 98 5 11 1 27 -3 35 -9z
m47 -15 c-3 -3 -12 -4 -19 -1 -8 3 -5 6 6 6 11 1 17 -2 13 -5z m-619 -39 c-3
-3 -9 2 -12 12 -6 14 -5 15 5 6 7 -7 10 -15 7 -18z m1064 13 c14 -12 10 -25
-34 -127 -27 -62 -62 -161 -79 -220 -33 -116 -79 -369 -79 -434 0 -23 -5 -49
-10 -57 -12 -19 -12 -38 5 235 7 127 17 317 21 423 l7 192 77 0 c46 0 82 -5
92 -12z m-429 -95 c3 -43 3 -143 0 -221 -5 -111 -3 -146 7 -152 9 -5 9 -13 3
-25 -7 -11 -7 -32 -1 -59 11 -47 7 -346 -4 -339 -5 2 -8 -14 -8 -37 l0 -41
-77 79 c-43 44 -104 94 -135 112 l-58 32 -1 246 c-1 136 -3 272 -4 302 -1 30
0 71 3 90 l4 35 126 27 c70 14 130 26 133 27 3 1 9 -34 12 -76z m-498 -214 c0
-118 4 -248 9 -290 l9 -75 -84 12 c-46 7 -112 13 -146 13 l-63 1 0 144 0 144
52 12 c29 6 62 17 73 24 24 16 60 76 46 76 -5 0 -9 21 -8 48 1 26 -1 59 -6 74
-7 27 -6 27 45 31 29 1 58 2 63 2 6 -1 10 -81 10 -216z m-1415 141 c0 -5 -5
-10 -11 -10 -5 0 -7 5 -4 10 3 6 8 10 11 10 2 0 4 -4 4 -10z m355 -44 c19 -8
35 -17 35 -20 0 -5 -71 22 -79 30 -9 8 11 4 44 -10z m145 -99 c0 -5 -18 6 -40
23 -22 17 -40 34 -40 36 0 9 80 -51 80 -59z m-703 -13 c-3 -3 -12 -4 -19 -1
-8 3 -5 6 6 6 11 1 17 -2 13 -5z m200 -10 c-3 -3 -12 -4 -19 -1 -8 3 -5 6 6 6
11 1 17 -2 13 -5z m40 -116 c-3 -8 -6 -5 -6 6 -1 11 2 17 5 13 3 -3 4 -12 1
-19z m42 -98 l23 -35 -26 30 c-14 17 -26 34 -26 39 0 11 0 11 29 -34z m271 29
c0 -12 -36 -38 -64 -45 -22 -5 -27 -4 -21 6 4 7 2 16 -6 22 -11 8 -10 9 3 5 9
-3 21 0 26 6 10 12 62 17 62 6z m1977 -56 c-3 -10 -5 -4 -5 12 0 17 2 24 5 18
2 -7 2 -21 0 -30z m-2047 -58 c-7 -9 -15 -13 -19 -10 -3 3 1 10 9 15 21 14 24
12 10 -5z m-256 -25 c62 -35 134 -47 190 -32 l39 11 -25 -27 c-14 -15 -29 -38
-33 -50 -6 -21 -4 -23 15 -17 16 5 20 4 15 -5 -5 -8 -2 -10 11 -6 27 8 144 18
244 20 47 1 92 4 100 6 9 3 14 0 12 -8 -2 -10 2 -10 16 -3 20 10 86 -2 108
-20 6 -5 15 -5 19 -1 5 4 5 1 1 -5 -5 -9 -33 -13 -84 -13 -96 0 -135 -17 -222
-96 -36 -33 -71 -63 -79 -69 -36 -25 -131 -129 -181 -198 -30 -42 -62 -76 -71
-76 -20 -1 -40 21 -73 84 -19 34 -25 41 -21 23 9 -43 -3 -33 -15 13 -6 23 -20
51 -31 62 -10 11 -19 29 -19 38 0 10 -5 21 -12 25 -7 5 -9 1 -6 -13 3 -12 2
-27 -3 -34 -6 -9 -9 6 -9 40 0 49 -1 52 -17 40 -15 -11 -16 -11 -5 1 7 8 12
42 12 80 1 122 36 260 67 260 2 0 27 -14 57 -30z m186 13 c23 3 38 1 34 -4 -6
-10 -58 -12 -91 -3 -13 4 -20 10 -17 16 3 5 12 4 20 -3 8 -7 30 -9 54 -6z
m1020 -69 c0 -8 -4 -12 -10 -9 -5 3 -10 10 -10 16 0 5 5 9 10 9 6 0 10 -7 10
-16z m63 -26 c7 -27 -2 -45 -14 -27 -11 18 -11 49 0 49 5 0 11 -10 14 -22z
m1024 -105 c-2 -16 -4 -5 -4 22 0 28 2 40 4 28 2 -13 2 -35 0 -50z m410 5 c-3
-7 -5 -2 -5 12 0 14 2 19 5 13 2 -7 2 -19 0 -25z m-2090 -4 c-3 -3 -12 -4 -19
-1 -8 3 -5 6 6 6 11 1 17 -2 13 -5z m110 0 c-3 -3 -12 -4 -19 -1 -8 3 -5 6 6
6 11 1 17 -2 13 -5z m131 -48 c2 -9 0 -16 -5 -14 -14 4 -53 -13 -53 -23 0 -5
-12 -3 -27 4 -20 11 -34 12 -57 4 -44 -14 -49 -22 -35 -48 12 -24 12 -24 -9
-6 -25 22 -45 14 -36 -15 4 -14 2 -18 -5 -14 -6 4 -11 2 -11 -5 0 -9 -3 -9
-15 1 -16 13 -55 5 -55 -13 -1 -7 -10 -1 -21 13 -13 15 -16 26 -10 28 6 2 9 8
5 13 -3 5 0 9 5 9 6 0 11 7 11 15 0 19 36 39 45 25 4 -7 13 -7 26 0 11 6 17
15 14 21 -4 5 4 10 17 11 35 2 40 1 75 -6 29 -7 32 -5 26 10 -4 11 -3 15 4 11
6 -4 24 0 39 8 24 12 32 12 49 1 11 -7 21 -21 23 -30z m1259 -48 c-3 -8 -6 -5
-6 6 -1 11 2 17 5 13 3 -3 4 -12 1 -19z m-1813 -80 c-4 -7 -33 -44 -64 -83
-30 -38 -68 -89 -83 -112 -15 -24 -30 -43 -32 -43 -10 0 67 113 123 181 55 66
71 83 56 57z m1024 -173 c2 -16 -10 -24 -65 -43 -38 -13 -72 -24 -78 -25 -5
-1 -11 17 -13 40 -3 40 -2 42 30 46 18 2 53 3 78 2 37 -1 46 -5 48 -20z m2099
-12 c-3 -10 -5 -4 -5 12 0 17 2 24 5 18 2 -7 2 -21 0 -30z m-2267 -23 c0 -56
-14 -67 -24 -19 -10 50 -7 69 9 69 11 0 15 -12 15 -50z m-97 -62 c9 -34 -8
-17 -30 30 l-22 47 24 -29 c13 -16 26 -38 28 -48z m2374 20 c-3 -7 -5 -2 -5
12 0 14 2 19 5 13 2 -7 2 -19 0 -25z m-2197 -58 c0 -5 -5 -10 -11 -10 -5 0 -7
5 -4 10 3 6 8 10 11 10 2 0 4 -4 4 -10z m44 -56 c3 -8 2 -12 -4 -9 -6 3 -10
10 -10 16 0 14 7 11 14 -7z m73 -56 c-3 -7 -5 -2 -5 12 0 14 2 19 5 13 2 -7 2
-19 0 -25z m-72 -15 c-8 -46 -21 -63 -46 -63 -15 0 -19 8 -19 39 0 34 4 41 28
49 42 16 45 14 37 -25z m72 -25 c-3 -8 -6 -5 -6 6 -1 11 2 17 5 13 3 -3 4 -12
1 -19z m-1096 -16 c-7 -2 -18 1 -23 6 -8 8 -4 9 13 5 13 -4 18 -8 10 -11z
m-118 -19 c-7 -2 -19 -2 -25 0 -7 3 -2 5 12 5 14 0 19 -2 13 -5z m-113 -29 c0
-8 -5 -12 -10 -9 -6 4 -8 11 -5 16 9 14 15 11 15 -7z m240 -14 c0 -5 -5 -10
-11 -10 -5 0 -7 5 -4 10 3 6 8 10 11 10 2 0 4 -4 4 -10z m-111 -16 c2 -2 -7
-4 -22 -4 -14 0 -29 5 -32 10 -6 10 42 4 54 -6z m476 -44 c3 -5 2 -10 -4 -10
-5 0 -13 5 -16 10 -3 6 -2 10 4 10 5 0 13 -4 16 -10z m-428 -6 c-3 -3 -12 -4
-19 -1 -8 3 -5 6 6 6 11 1 17 -2 13 -5z m413 -49 c0 -12 -19 -12 -23 0 -4 9
-1 12 9 8 7 -3 14 -7 14 -8z m-170 -79 c0 -11 -19 -15 -25 -6 -3 5 1 10 9 10
9 0 16 -2 16 -4z m60 -5 c0 -4 -11 -6 -25 -3 -14 2 -25 6 -25 8 0 2 11 4 25 4
14 0 25 -4 25 -9z m-130 -45 c0 -11 -19 -15 -25 -6 -3 5 1 10 9 10 9 0 16 -2
16 -4z m165 -6 c3 -5 1 -10 -4 -10 -6 0 -11 5 -11 10 0 6 2 10 4 10 3 0 8 -4
11 -10z m-238 -35 c0 -8 -4 -12 -9 -9 -5 3 -6 10 -3 15 9 13 12 11 12 -6z
m707 -475 c-10 -4 -28 -4 -39 -1 -17 4 -15 6 10 11 35 7 57 0 29 -10z m-230
-18 c2 -4 -7 -9 -22 -10 -21 -1 -24 0 -12 8 18 12 27 12 34 2z m129 -3 c7 0 3
-4 -8 -8 -22 -9 -35 -5 -35 11 0 5 7 7 16 4 9 -3 21 -6 27 -7z m-183 -29 c0
-5 -6 -10 -14 -10 -8 0 -17 -6 -19 -12 -4 -8 -6 -7 -6 4 -1 15 11 25 32 27 4
1 7 -3 7 -9z m327 4 c-3 -3 -12 -4 -19 -1 -8 3 -5 6 6 6 11 1 17 -2 13 -5z
m-182 -14 c4 -6 -6 -10 -22 -10 -22 0 -25 2 -13 10 19 12 27 12 35 0z m141 3
c-3 -4 -27 -8 -52 -8 -27 -1 -40 1 -32 6 16 10 94 12 84 2z m-379 -50 c-7 -7
-57 8 -57 18 0 4 14 3 31 -3 16 -6 28 -12 26 -15z m133 -3 c0 -5 -4 -10 -10
-10 -5 0 -10 5 -10 10 0 6 5 10 10 10 6 0 10 -4 10 -10z m74 1 c18 -7 18 -8 2
-14 -10 -4 -24 -1 -32 8 -17 17 -4 19 30 6z m-329 -21 c-6 -10 -75 -19 -75 -9
0 8 63 27 73 22 4 -3 5 -8 2 -13z m205 -10 c0 -5 -2 -10 -4 -10 -3 0 -8 5 -11
10 -3 6 -1 10 4 10 6 0 11 -4 11 -10z m-90 -19 c0 -10 -50 -25 -58 -16 -3 3 2
5 11 5 10 0 17 5 17 10 0 6 7 10 15 10 8 0 15 -4 15 -9z m-77 -22 c7 0 3 -4
-8 -8 -22 -9 -35 -5 -35 11 0 5 7 7 16 4 9 -3 21 -6 27 -7z m-150 -26 c-7 -2
-19 -2 -25 0 -7 3 -2 5 12 5 14 0 19 -2 13 -5z m227 -3 c-8 -5 -19 -10 -25
-10 -5 0 -3 5 5 10 8 5 20 10 25 10 6 0 3 -5 -5 -10z m-161 -25 c-9 -9 -23
-13 -32 -9 -28 10 -19 24 15 24 29 0 31 -2 17 -15z m-79 -5 c0 -5 -7 -10 -16
-10 -8 0 -12 5 -9 10 3 6 10 10 16 10 5 0 9 -4 9 -10z m117 -16 c-3 -3 -12 -4
-19 -1 -8 3 -5 6 6 6 11 1 17 -2 13 -5z m-162 -33 c-3 -5 3 -12 12 -14 15 -4
15 -5 2 -6 -9 0 -22 6 -29 14 -10 12 -9 15 4 15 10 0 15 -4 11 -9z m855 -45
c0 -2 -7 -6 -15 -10 -8 -3 -15 -1 -15 4 0 6 7 10 15 10 8 0 15 -2 15 -4z
m-130 -46 c0 -5 -4 -10 -9 -10 -6 0 -13 5 -16 10 -3 6 1 10 9 10 9 0 16 -4 16
-10z m80 -24 c-6 -8 -18 -12 -26 -9 -19 7 -7 23 18 23 17 0 18 -3 8 -14z
m-196 -5 c4 -5 -3 -7 -14 -4 -23 6 -26 13 -6 13 8 0 17 -4 20 -9z m106 -1 c0
-5 -7 -7 -15 -4 -8 4 -15 8 -15 10 0 2 7 4 15 4 8 0 15 -4 15 -10z m-110 -45
c0 -7 -30 -13 -34 -7 -3 4 4 9 15 9 10 1 19 0 19 -2z m-180 -61 c0 -2 -9 -4
-20 -4 -11 0 -20 4 -20 9 0 5 9 7 20 4 11 -3 20 -7 20 -9z m-40 -44 c-18 -12
-30 -13 -30 -2 0 4 10 9 22 9 18 2 20 0 8 -7z m29 -56 c-6 -8 -18 -14 -26 -14
-12 0 -13 3 -4 13 6 8 8 16 5 20 -3 3 4 3 15 0 17 -4 19 -8 10 -19z m74 19
c-7 -2 -19 -2 -25 0 -7 3 -2 5 12 5 14 0 19 -2 13 -5z m24 -69 c-3 -3 -12 -4
-19 -1 -8 3 -5 6 6 6 11 1 17 -2 13 -5z"/>
<path d="M3491 2134 c0 -11 3 -14 6 -6 3 7 2 16 -1 19 -3 4 -6 -2 -5 -13z"/>
<path d="M4172 2000 c0 -14 2 -19 5 -12 2 6 2 18 0 25 -3 6 -5 1 -5 -13z"/>
<path d="M4182 1770 c0 -14 2 -19 5 -12 2 6 2 18 0 25 -3 6 -5 1 -5 -13z"/>
<path d="M4192 1720 c0 -14 2 -19 5 -12 2 6 2 18 0 25 -3 6 -5 1 -5 -13z"/>
<path d="M771 2229 c-7 -30 -8 -56 -3 -61 5 -5 12 15 15 49 8 73 2 79 -12 12z"/>
<path d="M756 2051 c-4 -7 -5 -15 -2 -18 9 -9 19 4 14 18 -4 11 -6 11 -12 0z"/>
</g>
</svg>
